<?xml version="1.0" encoding="utf-8"?>
<!-- Generator: Adobe Illustrator 26.3.1, SVG Export Plug-In . SVG Version: 6.00 Build 0)  -->
<svg version="1.1" id="Layer_1" xmlns="http://www.w3.org/2000/svg" xmlns:xlink="http://www.w3.org/1999/xlink" x="0px" y="0px"
	 viewBox="0 0 521 534" style="enable-background:new 0 0 521 534;" xml:space="preserve">
<style type="text/css">
	.st0{fill:#C70025;}
	.st1{fill:#FF8484;}
	.st2{fill:#FFFFFF;}
</style>
<path class="st0" d="M250.1,10h21.4c0.8,0.2,1.5,0.3,2.3,0.3c24.8,1.1,49.2,5.9,72.6,14.3c54.4,19.6,97.7,53.4,129.3,101.8
	c31.9,48.7,45.3,102.3,41.1,160.4c-1.7,23.7-6.8,47.1-15.2,69.4c-19,50.4-50.6,91.1-94.8,121.9c-41.6,28.9-87.9,43.9-138.5,45.5
	c-27.6,0.9-55.1-2.7-81.5-10.7C115.9,491.4,57.6,440.4,26.9,373c-11.7-25.7-19.1-53.1-21.7-81.2c-0.4-4.6-0.8-9.2-1.2-13.8v-22.3
	c0.2-0.8,0.3-1.5,0.4-2.3c3.1-61.7,28.5-120.2,71.4-164.6c42.4-44.2,99.2-71.7,160.1-77.5C240.6,10.8,245.3,10.4,250.1,10z
	 M325,348.9L325,348.9v-46.2c0-3.8,0-3.8,3.7-3.8c19.5,0,38.9,0,58.4,0c2.4,0,4.8-0.2,7.2-0.5c13.6-1.7,19-11.3,13-23.7
	c-1.9-3.7-4.1-7.2-6.7-10.4c-30.1-38.2-60.2-76.3-90.3-114.4c-8.5-10.7-16.6-21.6-25.6-31.9c-8.6-9.9-19.8-13.5-32.7-9.6
	c-7.3,2.2-12.8,7-17.4,12.9c-18.9,24-37.9,48-56.9,72s-38,48.1-57,72.2c-3.1,3.9-5.8,7.9-7.2,12.8c-2.5,8.7,0.9,15.9,9.5,18.6
	c3.7,1.2,7.6,1.8,11.5,1.8c15.6,0.2,31.1,0.1,46.6,0.1c4.3,0,8.6,0.1,12.8,0c2.1-0.1,2.9,0.7,2.7,2.7c-0.1,0.9,0,1.7,0,2.6
	c0,30.1,0,60.2,0,90.3c0,18.6,14.2,32.8,32.8,32.8c20.9,0,41.8,0,62.7,0c2.3,0,4.7-0.2,7-0.7c15-3,25.8-16.2,25.8-31.5
	C325,379.7,325,364.3,325,348.9z"/>
<path class="st1" d="M325,357c0,15.4,0.1,30.8,0,46.2c0,15.3-10.8,28.5-25.8,31.5c-2.3,0.5-4.6,0.7-7,0.7c-20.9,0.1-41.8,0.1-62.7,0
	c-18.6,0-32.8-14.2-32.8-32.8c0-30.1,0-60.2,0-90.3c0-0.9-0.1-1.7,0-2.6c0.2-2-0.6-2.8-2.7-2.8c-4.3,0.1-8.6,0-12.8,0
	c-15.6,0-31.1,0.1-46.6-0.1c-3.9,0-7.8-0.6-11.5-1.7c-8.6-2.8-12-10-9.5-18.6c1.4-4.8,4.2-8.9,7.2-12.8c19-24.1,38-48.1,57-72.2
	s37.9-48.1,56.9-72c4.6-5.9,10.1-10.7,17.4-12.9c12.9-3.9,24-0.2,32.7,9.6c9,10.2,17.1,21.2,25.6,31.9
	c30.1,38.1,60.2,76.2,90.3,114.4c2.6,3.2,4.9,6.7,6.7,10.4c5.9,12.3,0.5,22-13,23.7c-2.4,0.3-4.9,0.5-7.3,0.5c-19.5,0-38.9,0-58.4,0
	c-3.7,0-3.7,0-3.7,3.8V357H325z"/>
<path class="st2" d="M325,348.9c0,15.4,0.1,30.8,0,46.2c0,15.3-10.8,28.5-25.8,31.5c-2.3,0.5-4.7,0.7-7,0.7c-20.9,0-41.8,0-62.7,0
	c-18.6,0-32.8-14.2-32.8-32.8c0-30.1,0-60.2,0-90.3c0-0.9-0.1-1.7,0-2.6c0.2-2-0.6-2.8-2.7-2.7c-4.3,0.1-8.6,0-12.8,0
	c-15.6,0-31.1,0.1-46.6-0.1c-3.9,0-7.8-0.6-11.5-1.7c-8.6-2.8-12-10-9.5-18.6c1.4-4.8,4.2-8.9,7.2-12.8c19-24.1,38-48.1,57-72.2
	s37.9-48.1,56.9-72c4.6-5.9,10.1-10.7,17.4-12.9c12.9-3.9,24-0.2,32.7,9.6c9,10.2,17.1,21.2,25.6,31.9
	c30.1,38.1,60.2,76.2,90.3,114.4c2.6,3.2,4.9,6.7,6.7,10.4c5.9,12.3,0.5,22-13,23.7c-2.4,0.3-4.8,0.4-7.2,0.5c-19.5,0-38.9,0-58.4,0
	c-3.7,0-3.7,0-3.7,3.8L325,348.9L325,348.9z"/>
</svg>
